<?xml version="1.0" encoding="UTF-8"?>
<svg width="50px" height="33px" viewBox="0 0 50 33" version="1.1" xmlns="http://www.w3.org/2000/svg" xmlns:xlink="http://www.w3.org/1999/xlink">
    <title>E87FC5B6-FBDF-499D-8D86-233323E8407E@3x</title>
    <g id="May-2020" stroke="none" stroke-width="1" fill="none" fill-rule="evenodd">
        <g id="Style-Guide-Rebrand-Update" transform="translate(-383.000000, -1240.000000)">
            <g id="Group-2-Copy-4" transform="translate(367.000000, 1222.000000)">
                <g id="Products/BOP" transform="translate(16.000000, 18.000000)">
                    <path d="M12.3529412,20.5885489 C12.3529412,34.2327964 23.413927,45.2941176 37.0588235,45.2941176 L37.0588235,-4.11764706 C23.413927,-4.11764706 12.3529412,6.94419688 12.3529412,20.5885489" id="Fill-1-Copy" fill="#FFDB43" transform="translate(24.705882, 20.588235) rotate(90.000000) translate(-24.705882, -20.588235) "></path>
                    <g id="Icons/BOP" transform="translate(4.117647, 0.000000)" fill="#0C0C47">
                        <path d="M34.5247627,14.8398757 L34.5247627,19.76396 L41.1303877,19.76396 L41.1303877,32.8926349 L-1.38080184e-14,32.8926349 L-1.38080184e-14,32.0831521 C-1.38080184e-14,28.3970344 1.41117913,24.917141 3.97368468,22.2847059 C6.54103451,19.6471743 9.98010824,18.1539445 13.6574217,18.0802309 C16.122793,18.0308812 18.4976133,18.6168613 20.5999113,19.76396 L20.5999113,19.76396 L26.3380978,19.76396 L26.3380978,14.8398757 L34.5247627,14.8398757 Z M39.5127052,22.2523862 L36.2329341,25.0191964 C34.7644308,26.2382686 33.0066986,26.9232586 31.2136279,27.0746637 L31.2136279,27.0746637 L31.2136279,27.9338069 L29.5959453,27.9338069 L29.5959453,27.0654029 C27.8356046,26.8993296 26.1145772,26.2194362 24.6736492,25.0233607 L24.6736492,25.0233607 L21.3890338,22.3394007 L21.3890338,31.2737314 L39.5127052,31.2737314 L39.5127052,22.2523862 Z M14.0935045,19.6968972 L13.6898412,19.6988235 C10.440378,19.7638979 7.40126874,21.0834095 5.13240174,23.4142775 C3.05432526,25.5492386 1.83219768,28.3146193 1.64339455,31.2737314 L1.64339455,31.2737314 L19.7713513,31.2737314 L19.7713513,21.1556937 C17.9269186,20.1614295 15.8478485,19.6541354 13.6898412,19.6988235 Z M38.0335818,21.3829256 L22.7761778,21.3829256 L25.7016325,23.7733363 C26.8455062,24.7229123 28.2029013,25.2766349 29.5959453,25.4376737 L29.5959453,25.4376737 L29.5959453,24.6755516 L31.2136279,24.6755516 L31.2136279,25.4478047 C32.6380978,25.3016826 34.0285334,24.7457847 35.1952001,23.7772519 L35.1952001,23.7772519 L38.0335818,21.3829256 Z M32.9071422,16.4587791 L27.9557803,16.4587791 L27.9557803,19.7591121 L32.9071422,19.7591121 L32.9071422,16.4587791 Z M13.9431727,1.06384256e-14 C18.0102653,1.06384256e-14 21.3191642,3.31139623 21.3191642,7.38155827 C21.3191642,11.4517825 18.0102653,14.7631165 13.9431727,14.7631165 C9.8760181,14.7631165 6.56711916,11.4517825 6.56711916,7.38155827 C6.56711916,3.31139623 9.8760181,1.06384256e-14 13.9431727,1.06384256e-14 Z M13.9431727,1.61890344 C10.7679886,1.61890344 8.1848017,4.20403996 8.1848017,7.38155827 C8.1848017,10.5590766 10.7679886,13.1442131 13.9431727,13.1442131 C17.1182947,13.1442131 19.7014817,10.5590766 19.7014817,7.38155827 C19.7014817,4.20403996 17.1182947,1.61890344 13.9431727,1.61890344 Z" id="Combined-Shape"></path>
                    </g>
                </g>
            </g>
        </g>
    </g>
</svg>