<?xml version="1.0" encoding="UTF-8"?>
<svg width="50px" height="35px" viewBox="0 0 50 35" version="1.1" xmlns="http://www.w3.org/2000/svg" xmlns:xlink="http://www.w3.org/1999/xlink">
    <title>810954A0-DB7C-4DC2-A53E-C959B1775725@3x</title>
    <g id="May-2020" stroke="none" stroke-width="1" fill="none" fill-rule="evenodd">
        <g id="Style-Guide-Rebrand-Update" transform="translate(-383.000000, -1080.000000)">
            <g id="Group-2-Copy-4" transform="translate(367.000000, 1062.000000)">
                <g id="Products/GL" transform="translate(16.000000, 18.000000)">
                    <path d="M12.3529412,21.7650195 C12.3529412,35.4092669 23.413927,46.4705882 37.0588235,46.4705882 L37.0588235,-2.94117647 C23.413927,-2.94117647 12.3529412,8.12066747 12.3529412,21.7650195" id="Fill-1" fill="#40FFB1" transform="translate(24.705882, 21.764706) rotate(90.000000) translate(-24.705882, -21.764706) "></path>
                    <g id="Icons/GL" transform="translate(4.117647, 0.000000)" fill="#0C0C47">
                        <path d="M37.0898842,11.0998017 L37.2860398,11.2128164 C39.6619546,12.5818516 41.1378879,15.1294964 41.1378879,17.8613636 C41.1378879,21.1438948 39.0534507,24.0336854 35.9938119,25.1034158 L35.9938119,25.1034158 L35.9938119,34.1170655 L-7.23871583e-14,34.1170655 L-7.23871583e-14,33.2756261 C-7.23871583e-14,29.447148 1.47418249,25.842373 4.15084761,23.1254969 C6.82621584,20.4098485 10.4158962,18.8719697 14.2585364,18.7952696 C18.2042798,18.7168249 21.9298749,20.1876961 24.7457619,22.9379791 C27.3550533,25.4865931 28.8783881,28.8312857 29.0884854,32.4341221 L29.0884854,32.4341221 L30.8755442,32.4341221 L30.8755442,25.1028988 C27.8166836,24.0327161 25.73283,21.1431194 25.73283,17.8613636 C25.73283,15.1301426 27.2081797,12.5829501 29.583057,11.213721 L29.583057,11.213721 L29.7792774,11.1006417 L30.8755442,11.1006417 L30.8755442,17.2323841 L33.219296,19.3170499 L33.6560908,19.3170499 L35.9938119,17.2336119 L35.9938119,11.0998017 L37.0898842,11.0998017 Z M37.6826957,13.6211475 L37.6826957,17.9863324 L34.3011672,20.9999933 L32.5751922,20.9999933 L29.1866605,17.9860094 L29.1866605,13.6225691 C28.0737934,14.7339773 27.4217138,16.2569942 27.4217138,17.8613636 C27.4217138,20.5971725 29.2758221,22.9836631 31.9305697,23.6649176 L31.9305697,23.6649176 L32.5643631,23.8275579 L32.5643631,32.4341221 L34.3049282,32.4341221 L34.3049282,23.8278164 L34.9389162,23.6652406 C37.594377,22.9843739 39.4490042,20.597754 39.4490042,17.8613636 C39.4490042,16.2562834 38.7962761,14.7326849 37.6826957,13.6211475 L37.6826957,13.6211475 Z M14.6653882,20.4754205 L14.2923205,20.4778899 C10.8938675,20.5457375 7.72023159,21.9046925 5.35605373,24.3044942 C3.18822603,26.504824 1.91331172,29.3654078 1.71592404,32.4341221 L1.71592404,32.4341221 L27.3962946,32.4341221 C27.1883372,29.2876738 25.8458546,26.3690642 23.5635757,24.1399153 C21.0744419,21.7087099 17.7815563,20.4058422 14.2923205,20.4778899 Z M14.5568226,-5.56971779e-15 C18.8029273,-5.56971779e-15 22.2574062,3.44239305 22.2574062,7.67349822 C22.2574062,11.904668 18.8029273,15.3470611 14.5568226,15.3470611 C10.3107179,15.3470611 6.856239,11.904668 6.856239,7.67349822 C6.856239,3.44239305 10.3107179,-5.56971779e-15 14.5568226,-5.56971779e-15 Z M14.5568226,1.6829434 C11.2419546,1.6829434 8.54512274,4.37035428 8.54512274,7.67349822 C8.54512274,10.9767068 11.2419546,13.6641176 14.5568226,13.6641176 C17.8716906,13.6641176 20.5685225,10.9767068 20.5685225,7.67349822 C20.5685225,4.37035428 17.8716906,1.6829434 14.5568226,1.6829434 Z" id="Combined-Shape"></path>
                    </g>
                </g>
            </g>
        </g>
    </g>
</svg>