<?xml version="1.0" encoding="UTF-8"?>
<svg width="50px" height="33px" viewBox="0 0 50 33" version="1.1" xmlns="http://www.w3.org/2000/svg" xmlns:xlink="http://www.w3.org/1999/xlink">
    <title>7C86FB91-2FE8-48D5-AE51-ED8ACFA9E3B7@3x</title>
    <g id="May-2020" stroke="none" stroke-width="1" fill="none" fill-rule="evenodd">
        <g id="Style-Guide-Rebrand-Update" transform="translate(-383.000000, -1400.000000)">
            <g id="Group-2-Copy-4" transform="translate(367.000000, 1382.000000)">
                <g id="Products/PL" transform="translate(16.000000, 18.000000)">
                    <path d="M12.3529412,20.5885489 C12.3529412,34.2327964 23.413927,45.2941176 37.0588235,45.2941176 L37.0588235,-4.11764706 C23.413927,-4.11764706 12.3529412,6.94419688 12.3529412,20.5885489" id="Fill-1-Copy-2" fill="#FFAF45" transform="translate(24.705882, 20.588235) rotate(90.000000) translate(-24.705882, -20.588235) "></path>
                    <g id="Icons/PL" transform="translate(4.117647, 0.000000)" fill="#0C0C47">
                        <path d="M13.6902109,17.9959079 C17.4836789,17.9164506 21.0641007,19.3344779 23.7713447,21.9854642 C26.3077779,24.4691293 27.776613,27.7381519 27.9525318,31.2556967 L27.9525318,31.2556967 L41.1508054,31.2556967 L41.1508054,32.9018214 L-1.41874587e-14,32.9018214 L-1.41874587e-14,32.0908084 C-1.41874587e-14,28.3969132 1.4139539,24.9007895 3.98128504,22.2464406 C6.55908161,19.5813811 10.0070659,18.0718781 13.6902109,17.9959079 Z M14.0822691,19.6152689 L13.7237252,19.6174981 C10.4715938,19.6845635 7.42590549,21.0186501 5.14774406,23.373913 C3.06331761,25.5288513 1.8376168,28.3108551 1.648367,31.2798577 L1.648367,31.2798577 L26.3292694,31.2798577 C26.1603275,28.1927899 24.863985,25.325849 22.6359082,23.1441343 C20.2428139,20.800765 17.0770846,19.5496853 13.7237252,19.6174981 Z M35.2413278,16.4596909 C36.6580226,16.4596909 37.81059,17.6118225 37.81059,19.0279818 L37.81059,19.0279818 L37.81059,27.9863254 L41.1295008,27.9863254 L41.1295008,29.6082891 L32.8691021,29.6082891 L32.8691021,27.9863254 L36.1880128,27.9863254 L36.1880128,19.0279818 C36.1880128,18.5062159 35.7633532,18.0816546 35.2413278,18.0816546 L35.2413278,18.0816546 L34.5891697,18.0816546 L34.9483581,16.4596909 Z M34.3398683,3.95530746 L35.9238231,4.30582898 L30.9163033,26.9164781 L29.3323485,26.5659691 L34.3398683,3.95530746 Z M13.9869805,1.77244581e-14 C18.0664412,1.77244581e-14 21.3852897,3.31759368 21.3852897,7.39551206 C21.3852897,11.4734304 18.0664412,14.7910241 13.9869805,14.7910241 C9.90758209,14.7910241 6.58867135,11.4734304 6.58867135,7.39551206 C6.58867135,3.31759368 9.90758209,1.77244581e-14 13.9869805,1.77244581e-14 Z M13.9869805,1.62196375 C10.8022515,1.62196375 8.21124855,4.2119871 8.21124855,7.39551206 C8.21124855,10.5790993 10.8022515,13.1691227 13.9869805,13.1691227 C17.1717718,13.1691227 19.7627125,10.5790993 19.7627125,7.39551206 C19.7627125,4.2119871 17.1717718,1.62196375 13.9869805,1.62196375 Z" id="Combined-Shape"></path>
                    </g>
                </g>
            </g>
        </g>
    </g>
</svg>